<?xml version="1.0" encoding="UTF-8"?><svg id="Camada_1" xmlns="http://www.w3.org/2000/svg" viewBox="0 0 625.92 314.64"><defs><style>.cls-1{fill:#fff;}.cls-2{fill:#fefdfd;}.cls-3{fill:#1f3e86;}</style></defs><path class="cls-1" d="M274.94,.02C391.56,.02,508.19,.02,624.82,0c.9,0,1.1,.2,1.1,1.1-.02,104.15-.02,208.29,0,312.44,0,.9-.2,1.1-1.1,1.1-207.91-.02-415.81-.02-623.72,0-.9,0-1.1-.2-1.1-1.1C.02,209.03,.02,104.53,.02,.02c88.92,0,177.84,0,266.76,0-.03,.62-.54,.5-.89,.53-10.41,1.07-19.53,5.16-27.23,12.16-8.46,7.68-13.6,17.26-15.25,28.61-1.46,10-.01,19.57,4.37,28.69,.35,.72,.78,1.4,1.17,2.09,.5,.89,.46,1.66-.33,2.36-.3,.26-.57,.56-.85,.85-6.76,6.75-13.49,13.53-20.28,20.25-2.76,2.73-5.27,5.68-8.1,8.34-.68,.64-.68,1.08,.07,1.72,1.4,1.18,2.63,2.57,3.94,3.86,.17,.17,.33,.35,.46,.55,.13,.21,.27,.46,.11,.67-.23,.29-.53,.1-.75-.05-1.25-.8-2.22-1.94-3.35-2.89-9.67-8.13-20.69-13.35-33.17-15.48-5.07-.87-10.19-1.1-15.29-.78-13.17,.84-25.13,5.15-35.81,12.95-9.67,7.07-16.94,16.07-21.82,27-.48,1.07-1.2,1.11-2.14,.93-4.17-.78-8.33-1.53-12.51-2.27-3.27-.58-6.52-1.22-9.8-1.76-1.08-.18-1.64-.62-1.91-1.75-2.46-10.18-8.33-17.77-17.6-22.63-5.88-3.08-12.2-4.17-18.82-3.47-8.2,.86-15.19,4.26-20.9,10.16-5.32,5.49-8.42,12.13-9.23,19.73-.99,9.36,1.38,17.86,7.29,25.22,5.34,6.65,12.28,10.76,20.74,12.1,10.24,1.62,19.39-.9,27.42-7.5,2.5-2.06,4.53-4.51,6.34-7.15,.45-.66,.83-.8,1.66-.58,2.55,.68,5.17,1.03,7.77,1.49,4.17,.74,8.33,1.53,12.51,2.25,1.67,.29,1.78,.21,1.94-1.44,.2-2.03,.69-4.02,1.07-6.02,.05-.27,.12-.55,.28-.79,.23-.35,.44-.3,.58,.06,.14,.35,.06,.71,0,1.06-.55,3.44-.79,6.91-.73,10.37,.1,6.48,.89,12.89,2.74,19.15,2.83,9.53,7.43,18.1,13.95,25.59,7.73,8.88,17.13,15.39,28.28,19.33,5.72,2.03,11.59,3.29,17.65,3.76,8.39,.66,16.59-.21,24.64-2.6,1.57-.47,3.12-1.01,4.65-1.57,1.34-.49,1.46-.46,2.21,.79,2.96,4.89,5.82,9.83,8.74,14.75,.84,1.41,1.73,2.78,2.48,4.24,.42,.82,.88,.91,1.59,.37,2.17-1.65,4.51-3.04,6.89-4.35,.4-.22,.98-.73,1.27-.29,.37,.56-.38,.83-.77,1.1-1.85,1.26-3.68,2.55-5.48,3.88-3.66,2.7-6.24,6.28-8.4,10.18-3.71,6.7-5.41,13.93-5.02,21.55,.48,9.35,3.74,17.65,9.91,24.79,4.44,5.13,9.83,8.87,16.14,11.27,3.6,1.37,7.34,2.13,11.2,2.47,6.43,.56,12.64-.39,18.51-2.93,12.96-5.61,21.23-15.33,24.09-29.19,2.59-12.56-.16-24.08-8.3-34.09-6.96-8.56-16.08-13.3-27.05-14.52-3.36-.37-6.7-.29-10.03,.19-.95,.14-1.61-.2-2.09-1.02-4.24-7.24-8.54-14.45-12.78-21.69-.71-1.22-.66-1.43,.47-2.58,5.37-5.5,9.91-11.6,13.27-18.53,3.27-6.74,5.37-13.83,6.35-21.27,.39-2.94,.64-5.9,.61-8.83-.07-6.24-.82-12.42-2.56-18.45-1.53-5.28-3.57-10.34-6.3-15.12-.76-1.33-.72-1.57,.41-2.7,5.73-5.74,11.44-11.51,17.22-17.2,4.42-4.35,8.61-8.91,13.01-13.27,.86-.86,.87-.93-.13-1.75-2.16-1.78-4.27-3.62-6.26-5.58-.38-.38-1.2-.86-.68-1.39,.42-.43,.95,.34,1.33,.7,7.38,6.92,16.17,10.83,26.18,11.86,13.54,1.39,25.68-2.24,36.13-10.99,9.54-7.99,15.09-18.28,16.73-30.61,1.6-11.97-.91-23.1-7.6-33.12-7.85-11.74-18.91-18.68-32.86-20.97-.75-.12-1.49-.25-2.26-.28-.35-.01-.85,.08-.88-.53Z"/><path class="cls-3" d="M274.94,.02c.87,.56,1.89,.29,2.82,.42,7.26,1.01,13.85,3.68,19.98,7.62,2.66,1.7,5.1,3.71,7.29,5.93,3.07,3.12,5.77,6.57,7.93,10.43,2.25,4.03,3.93,8.26,5,12.73,.57,2.35,.93,4.74,1.16,7.16,.18,1.87,.24,3.73,.18,5.58-.2,5.85-1.39,11.49-3.54,16.96-1.76,4.46-4.19,8.52-7.13,12.24-2.83,3.57-6.19,6.64-9.92,9.28-5.37,3.8-11.33,6.25-17.7,7.73-1.97,.46-4.01,.67-6.05,.84-1.75,.15-3.49,.22-5.23,.17-5.9-.18-11.59-1.36-17.08-3.57-4.51-1.81-8.46-4.46-12.12-7.63-.77-.67-1.49-1.44-2.41-1.95,2.55,2.85,5.47,5.29,8.47,7.75-.28,.29-.56,.6-.85,.89-10.16,10.51-20.56,20.78-30.9,31.1-.49,.49-.6,.85-.24,1.48,2.59,4.49,4.64,9.2,6.14,14.17,1.12,3.69,1.88,7.45,2.42,11.27,.39,2.78,.62,5.59,.6,8.36-.04,5.29-.57,10.55-1.77,15.75-1.4,6.06-3.51,11.82-6.44,17.28-1.89,3.53-4.1,6.85-6.68,9.97-1.94,2.34-3.85,4.68-6,6.83-.39,.39-.44,.65-.11,1.2,3.38,5.67,6.7,11.38,10.04,17.07,1.04,1.78,2.1,3.54,3.12,5.33,.36,.63,.9,.79,1.51,.65,2.5-.57,5.04-.51,7.57-.45,4.73,.11,9.28,1.11,13.66,2.87,4.42,1.77,8.38,4.25,11.96,7.42,4.94,4.38,8.41,9.69,10.89,15.75,2.45,6.01,2.99,12.28,2.57,18.63-.28,4.24-1.45,8.33-3.09,12.26-2.42,5.8-6.08,10.71-10.77,14.83-4.93,4.32-10.67,7.22-17.05,8.8-3.37,.83-6.81,1.27-10.27,1.18-5.07-.13-9.99-1.09-14.71-3-5.33-2.16-10.04-5.28-13.98-9.46-4.62-4.88-7.93-10.52-9.78-17.05-1.26-4.44-1.83-8.94-1.6-13.51,.23-4.49,1.16-8.87,2.86-13.06,1.89-4.67,4.39-9.01,7.95-12.57,2.62-2.62,5.73-4.7,8.9-6.64,.13-.08,.24-.2,.25-.51-1.26,.73-2.55,1.42-3.78,2.2-1.65,1.03-3.3,2.07-4.85,3.22-.58,.43-.76,.15-.97-.2-1.92-3.24-3.8-6.5-5.71-9.74-2.09-3.55-4.2-7.08-6.27-10.64-.25-.43-.43-.43-.82-.26-3.25,1.4-6.65,2.37-10.09,3.11-3.02,.65-6.07,1.12-9.16,1.37-2.63,.21-5.25,.21-7.87,.17-5.18-.09-10.29-.89-15.29-2.25-5.07-1.38-9.97-3.22-14.58-5.73-4.15-2.26-8.05-4.9-11.66-7.97-2.66-2.26-5.22-4.62-7.47-7.28-3.18-3.76-5.97-7.77-8.36-12.09-2.17-3.93-3.89-8.02-5.26-12.27-1.26-3.93-2.15-7.94-2.63-12.06-.28-2.4-.33-4.8-.49-7.21-.16-2.41-.02-4.81,.1-7.2,.08-1.66,.2-3.35,.64-4.99,.08-.28,.11-.62-.1-.95-.71,2.78-1.18,5.58-1.53,8.4-.08,.66-.34,.71-.82,.62-4.87-.87-9.74-1.74-14.6-2.62-2.22-.4-4.53-.57-6.64-1.3-1.23-.43-1.45,.03-1.96,.79-2.89,4.31-6.66,7.66-11.12,10.31-3.49,2.07-7.26,3.38-11.2,4.06-3.96,.68-7.94,.6-11.96-.12-5.29-.94-10.08-2.97-14.29-6.16-6.62-5.03-10.97-11.65-12.84-19.82-.6-2.62-.98-5.28-.9-7.93,.22-7.62,2.4-14.6,7.14-20.72,4.56-5.9,10.43-9.8,17.51-11.96,3.85-1.17,7.8-1.56,11.79-1.3,4.62,.29,9.1,1.41,13.18,3.6,9.59,5.15,15.71,13,17.97,23.73,.1,.46,.32,.42,.64,.47,2.57,.46,5.13,.95,7.69,1.43,4.25,.79,8.49,1.64,12.75,2.34,1.11,.18,2.23,.41,3.35,.57,.74,.11,.9-.22,1.12-.72,2.32-5.53,5.5-10.56,9.25-15.2,4.03-4.99,8.73-9.26,14.01-12.94,5.96-4.15,12.38-7.26,19.3-9.37,3.69-1.13,7.46-1.84,11.3-2.36,4.24-.57,8.49-.56,12.73-.38,3.5,.15,6.97,.76,10.42,1.51,6.2,1.36,12.03,3.6,17.61,6.58,3.86,2.06,7.48,4.48,10.83,7.3,1.65,1.38,3.28,2.78,4.95,4.19,.23-.48-.17-.62-.37-.8-1.65-1.55-3.07-3.35-4.92-4.69-.41-.3-.47-.61-.03-.94,.09-.07,.17-.17,.26-.25,9.68-10.08,19.66-19.86,29.56-29.74,.76-.76,.83-1.33,.32-2.2-2.31-3.94-3.85-8.2-4.89-12.63-.62-2.63-1.08-5.3-1.11-8.01-.02-2.04-.08-4.08,.01-6.11,.21-4.74,1.25-9.33,2.87-13.78,1.28-3.52,2.95-6.85,5.04-9.95,2.45-3.63,5.26-6.94,8.62-9.81,3.17-2.7,6.54-5.06,10.28-6.87,4.67-2.27,9.54-3.91,14.73-4.54,.84-.1,1.8,.15,2.59-.42h8.16Z"/><path class="cls-3" d="M615.81,122.74c.91,.82,1.19,1.93,1.2,3.06,.02,22.58,.01,45.15,.03,67.73,0,.8-.23,.98-1,.98-3.56-.04-7.12-.06-10.67,0-.95,.02-1.08-.3-1.08-1.14,.02-15.46,.02-30.93,.02-46.39,0-.42,0-.85,0-1.58-1.23,1.89-2.31,3.52-3.35,5.18-2.63,4.17-5.23,8.36-7.85,12.54-3.86,6.15-7.71,12.31-11.6,18.44-2.23,3.51-4.45,7.03-6.82,10.44-.9,1.29-2.37,2.02-3.95,2.33-5.01,1-9.53-1.46-10.37-6.94-.29-1.91-.19-3.8-.2-5.7-.03-11.91-.01-23.81-.01-36.03-1.38,2.22-2.6,4.21-3.85,6.18-5.19,8.21-10.39,16.41-15.58,24.62-3.67,5.81-7.35,11.62-10.99,17.45-.24,.39-.45,.58-.9,.57-4.94,0-9.89,0-15.03,0,3.47-5.2,6.86-10.26,10.23-15.34,6.15-9.26,12.36-18.49,18.43-27.8,4.5-6.9,9.15-13.71,13.66-20.61,1.4-2.15,2.86-4.27,4.24-6.43,1.94-3.04,6.38-4.52,9.59-3.23,1.73,.7,3.15,2.82,3.15,5.01,0,14.54,0,29.09,0,43.63v1.58c1.6-2.38,3.09-4.56,4.55-6.77,4.32-6.51,8.62-13.04,12.94-19.55,4.13-6.22,8.31-12.4,12.38-18.66,1.1-1.7,2.08-3.46,3.87-4.49,1.89-1.09,3.95-1.63,6.16-.98,.36,1.49,1.82,1.31,2.8,1.86Z"/><path class="cls-3" d="M264.09,194.49c-4.6,0-9.19-.02-13.79,.02-.85,0-1.06-.22-1.05-1.05,.05-3.64,.05-7.27,0-10.91-.01-.87,.26-1.03,1.07-1.03,8.31,.03,16.63,0,24.94,.03,3.16,0,6.12-.69,8.78-2.41,4.35-2.81,5.84-8.28,2.47-12.78-1.94-2.59-4.67-3.81-7.69-4.47-3.84-.84-7.75-.35-11.63-.51-3.89-.16-7.53-1.31-10.73-3.52-3.8-2.63-6.49-6.19-7.65-10.73-1.63-6.41-.79-12.41,3.35-17.75,3.54-4.57,8.36-6.86,13.94-7.81,2.35-.4,4.71-.48,7.09-.47,7.04,.02,14.07,.02,21.11-.01,.83,0,1.07,.18,1.06,1.04-.05,3.64-.05,7.27,0,10.91,.01,.85-.23,1.04-1.06,1.04-7.76-.03-15.51-.08-23.27,.02-2.74,.04-5.37,.54-7.48,2.75-1.8,1.9-2.25,5.17-1.39,7.33,1.21,3.03,3.49,4.62,6.75,5.02,3.3,.41,6.6,.1,9.9,.21,5.26,.17,9.91,1.86,13.87,5.38,3.98,3.54,6.29,7.94,6.97,13.2,.78,6.02,.04,11.69-3.56,16.81-2.55,3.62-5.94,6.08-9.96,7.77-3.6,1.51-7.36,2.04-11.26,1.95-3.6-.09-7.2-.02-10.79-.02Z"/><path class="cls-3" d="M382.37,194.49c-4.6,0-9.2-.02-13.79,.02-.83,0-1.07-.18-1.06-1.04,.05-3.64,.05-7.27,0-10.91-.01-.86,.24-1.04,1.06-1.04,8.64,.03,17.27,.12,25.91-.02,4.2-.07,7.93-1.48,10.63-5,1.83-2.38,2.03-6.6,.4-9.17-2.42-3.8-6.09-5.22-10.35-5.71-3.38-.4-6.77,.03-10.14-.25-4.61-.38-8.77-1.93-12.26-5.15-2.94-2.71-5.03-5.94-5.86-9.82-1.33-6.29-.4-12.17,3.8-17.33,3.18-3.9,7.35-6.06,12.12-7.22,2.14-.52,4.34-.73,6.54-.73,7.72-.01,15.43,.01,23.15-.03,.92,0,1.11,.24,1.1,1.12-.05,3.6-.06,7.19,0,10.79,.02,.96-.3,1.08-1.15,1.08-7.6-.03-15.19-.02-22.79-.02-1.26,0-2.49,.26-3.72,.46-3.19,.52-6.57,3.81-5.93,8.06,.54,3.58,3.03,6.05,6.76,6.58,3.53,.5,7.08,.11,10.62,.25,4.91,.19,9.27,1.82,13.1,4.93,4.03,3.28,6.37,7.59,7.33,12.56,1.02,5.24,.6,10.45-1.87,15.3-2.52,4.96-6.55,8.29-11.68,10.37-3.55,1.44-7.21,2-11.03,1.92-3.64-.07-7.28-.02-10.91-.02Z"/><path class="cls-3" d="M347.86,133.48c0-3.8,.02-7.59-.02-11.39,0-.76,.17-1.01,.97-1,3.68,.05,7.36,.04,11.03,0,.8,0,.98,.22,.98,.99-.03,7.59,.18,15.19-.08,22.78-.21,6.2-1.69,12.2-5.13,17.5-3.66,5.64-8.87,9.12-15.44,10.55-2.16,.47-2.15,.48-2.15,2.72,0,5.91-.02,11.83,.02,17.74,0,.84-.13,1.16-1.08,1.14-3.6-.07-7.2-.06-10.79,0-.88,.01-1.13-.19-1.12-1.1,.05-6.35,.02-12.71,.03-19.06,0-.67,.08-1.07-.95-1.28-3.98-.79-7.79-2.1-11.03-4.71-2.15-1.74-4.03-3.71-5.47-6.07-2.54-4.18-4.02-8.72-4.62-13.57-.95-7.66-.26-15.35-.47-23.03-.03-1.28,.02-2.56-.02-3.84-.02-.56,.14-.76,.73-.75,3.84,.02,7.68,.04,11.51,0,.87,0,.72,.49,.72,1,0,7.27-.07,14.55,.03,21.82,.05,3.44,.53,6.87,2.01,10.03,1.5,3.22,3.97,5.39,7.52,6.11,4.68,.94,9.37,1.06,14.02-.26,3.83-1.08,6.12-3.71,7.35-7.36,.96-2.83,1.41-5.77,1.44-8.75,.03-3.4,0-6.79,0-10.19Z"/><path class="cls-3" d="M476.69,157.67c0-11.78,.01-23.57-.03-35.35,0-1,.24-1.23,1.24-1.23,11.11,.04,22.22,.04,33.33,0,1.01,0,1.24,.26,1.22,1.24-.06,3.51-.07,7.03,0,10.55,.02,1.04-.31,1.21-1.26,1.21-6.79-.04-13.59,0-20.38-.04-.89,0-1.21,.15-1.2,1.14,.06,4.83,.05,9.67,0,14.5,0,.91,.19,1.19,1.16,1.19,5.83-.05,11.67,0,17.51-.05,.84,0,1.06,.21,1.05,1.05-.05,3.63-.05,7.27,0,10.91,.01,.86-.25,1.04-1.07,1.03-5.79-.04-11.59,0-17.39-.04-.94,0-1.28,.14-1.27,1.2,.07,5.11,.06,10.23,0,15.34,0,.96,.18,1.26,1.21,1.26,7.03-.05,14.07,0,21.1-.05,.98,0,1.27,.2,1.25,1.22-.07,3.59-.05,7.19,0,10.79,0,.79-.22,.98-.99,.98-11.51-.02-23.02-.03-34.53,0-.96,0-.97-.4-.97-1.12,.02-11.9,.01-23.81,.01-35.71Z"/><path class="cls-3" d="M453.42,164.27c0,9.67-.02,19.34,.03,29.01,0,1-.24,1.25-1.24,1.23-3.52-.07-7.04-.07-10.55,0-1.03,.02-1.21-.29-1.21-1.26,.03-19.18,.02-38.36,.02-57.54q0-1.66-1.72-1.66c-5.24,0-10.47-.02-15.71,.02-.82,0-1.08-.17-1.06-1.03,.05-3.68,.04-7.35,0-11.03,0-.75,.2-.92,.93-.92,16.11,.02,32.22,.02,48.33,0,.77,0,.92,.23,.91,.94-.03,3.68-.05,7.35,0,11.03,.01,.89-.3,1.02-1.09,1.01-5.52-.03-11.03,0-16.55-.04-.88,0-1.13,.19-1.12,1.1,.04,9.71,.02,19.42,.02,29.13Z"/><path class="cls-3" d="M413.45,225.39c1.51-4.41,3-8.69,4.44-12.98,.18-.55,.44-.64,.93-.67,2.46-.13,2.46-.14,2.46,2.36,0,4.44-.04,8.87,.03,13.31,.01,.99-.32,1.18-1.2,1.15-.79-.03-1.28,0-1.26-1.1,.08-3.75,.03-7.5,.03-11.54-1.15,2.54-1.73,4.97-2.62,7.3-.58,1.52-1.16,3.05-1.56,4.61-.25,.98-.89,.64-1.45,.7-.62,.07-1.09,0-1.34-.75-1.24-3.79-2.55-7.56-3.83-11.34-.11-.32-.22-.63-.48-.94,0,3.92-.04,7.84,.03,11.75,.02,1.04-.21,1.35-1.29,1.32-.95-.02-1.17-.29-1.16-1.2,.05-4.83,.04-9.67,0-14.51,0-.84,.12-1.17,1.08-1.15,2.53,.06,2.54,0,3.35,2.38,1.18,3.48,2.34,6.97,3.51,10.46,.09,.25,.2,.5,.33,.82Z"/><path class="cls-3" d="M327.57,215.71c-1.15,3.31-2.3,6.62-3.44,9.93-.18,.51-.34,1.03-.51,1.54-.44,1.31-1.05,1.6-2.46,1.37-.62-.1-.49-.62-.59-.88-1.1-3.14-2.12-6.31-3.17-9.47-.25-.76-.55-1.5-.96-2.22,0,3.81,0,7.62-.01,11.43,0,.37,.24,.97-.21,1.07-.64,.15-1.35,.07-2.02,0-.24-.03-.16-.41-.16-.64,0-5.11,0-10.23-.01-15.34,0-.56,.14-.73,.73-.76,2.71-.12,2.72-.14,3.52,2.24,1.26,3.78,2.51,7.57,3.81,11.52,1.03-2.94,2.01-5.74,2.98-8.54,.48-1.39,1.05-2.76,1.4-4.19,.21-.84,.56-1.04,1.35-1.03,2.29,.03,2.29,0,2.29,2.3,0,4.51-.04,9.03,.03,13.54,.02,1.12-.57,.95-1.25,.97-.72,.02-1.24,.07-1.21-1,.08-3.93,.03-7.87,.03-11.81-.05,0-.1-.02-.14-.03Z"/><path class="cls-3" d="M449.42,220.93c2.54,2.02,3.77,4.89,5.63,7.61-1.07,0-1.9-.02-2.72,0-.37,.01-.51-.15-.71-.45-1.15-1.71-2.12-3.54-3.41-5.16-1.18-1.48-3.39-2.31-5.23-1.84-.57,.15-.36,.54-.37,.85-.02,1.92-.04,3.84,0,5.75,.02,.69-.21,.86-.87,.86-1.78,0-1.78,.03-1.78-1.73,0-4.68,.02-9.35-.02-14.03,0-.82,.17-1.08,1.04-1.06,2.68,.06,5.36-.07,8.03,.05,3.05,.13,4.08,1.27,4.57,4.14,.31,1.77-.58,3.75-3.02,4.7-.36,.14-.74,.21-1.16,.32Z"/><path class="cls-3" d="M386.71,220.61c-.03-3.53,.82-6.46,3.78-8.12,4.16-2.34,10.82-1.14,12.06,5.25,.58,2.98,.28,5.8-1.65,8.33-1.13,1.48-2.62,2.31-4.37,2.59-2.97,.48-5.78,.05-7.83-2.38-1.42-1.68-2.14-3.7-1.99-5.66Z"/><path class="cls-3" d="M354.76,228.79c-1.41,.09-3.09-.16-4.55-1.23-1.22-.89-1.92-2.1-2.13-3.63-.13-.95,.52-1.04,1.1-1.12,.59-.08,1.21-.22,1.36,.81,.28,1.84,1.83,2.67,3.73,2.98,1.95,.32,3.83-.41,4.47-1.62,.66-1.24,.37-2.23-.86-2.93-1.48-.83-3.18-.96-4.76-1.43-1.34-.4-2.66-.83-3.58-1.97-1.85-2.29-.88-5.86,2.3-6.81,2.41-.72,4.91-.67,7.16,.69,1.34,.81,1.68,2.28,2.03,3.69,.06,.26-.18,.26-.36,.34-1.27,.54-1.83,.33-2.35-.96-.53-1.3-1.54-1.89-2.89-1.92-.98-.02-1.98-.11-2.92,.29-.92,.39-1.44,1.1-1.5,2.06-.05,.91,.6,1.45,1.38,1.7,1.91,.61,3.86,1.1,5.78,1.7,2.09,.65,3.39,2.29,3.36,4.28-.02,1.51-1.03,3.91-3.42,4.66-1.01,.32-1.98,.39-3.35,.42Z"/><path class="cls-3" d="M274.99,211.51c2.14-.12,4.01,.4,5.37,2.18,.27,.35,.45,.71,.58,1.13,.51,1.64,.08,2.16-1.64,1.98-.4-.04-.49-.16-.55-.55-.23-1.49-1.52-2.57-3.02-2.57-1.13,0-2.32-.22-3.32,.53-.65,.48-1.24,1.08-1.06,1.97,.16,.79,.65,1.27,1.48,1.63,1.97,.84,4.18,.8,6.1,1.83,2.28,1.23,2.94,2.32,2.71,5.01-.13,1.55-1.89,3.48-3.66,3.87-2.06,.46-4.13,.44-6.15-.23-1.85-.62-3.55-2.9-3.62-4.81-.03-.84,.72-.41,1.07-.59,.58-.29,1.19-.28,1.49,.64,.77,2.38,3.32,3.63,5.8,3.01,1.19-.3,2.24-.8,2.65-2.02,.4-1.23-.26-2.16-1.6-2.71-1.8-.74-3.74-.97-5.56-1.64-2-.73-3.12-2.05-3.13-3.89-.01-2.11,1.1-3.59,3.04-4.38,1.01-.41,2-.35,3.01-.38Z"/><path class="cls-3" d="M253.15,211.51c3.54-.24,5.43,1.56,6.09,3.83,.18,.63,.26,1.32-.51,1.35-.57,.03-1.51,.81-1.83-.62-.36-1.59-1.76-2.53-3.31-2.41-1.2,.09-2.35-.08-3.43,.86-1.1,.95-.72,2.71,.76,3.27,1.61,.6,3.29,.87,4.91,1.37,2.93,.89,4.31,2.44,4.01,5.52-.16,1.56-1.92,3.45-3.7,3.86-1.83,.42-3.69,.45-5.49-.04-2.42-.65-3.75-2.37-4.24-4.78-.21-1.06,.79-.64,1.2-.86,.26-.14,1.01-.52,1.23,.5,.81,3.87,6.17,3.94,7.86,2.21,1.33-1.36,.9-3.04-.9-3.76-1.81-.72-3.73-.99-5.56-1.64-2.64-.94-3.78-3.14-2.87-5.75,.51-1.46,2.58-2.85,4.35-2.9,.48-.01,.96,0,1.44,0Z"/><path class="cls-3" d="M507.63,211.51c1.6-.07,3.1,.1,4.45,1.13,.83,.63,1.25,1.4,1.59,2.33,.56,1.54,.02,1.87-1.46,1.81-.41-.02-.62-.17-.75-.59-.51-1.76-1.57-2.53-3.43-2.53-.98,0-1.98-.15-2.85,.49-.62,.46-1.16,.97-1.14,1.82,.02,.84,.51,1.37,1.25,1.68,1.47,.63,3.06,.84,4.57,1.3,1.42,.44,2.83,.85,3.83,2.21,1.32,1.79,.77,5.22-1.32,6.58-2.5,1.63-8.26,1.44-10.04-1.02-.57-.78-.94-1.6-1.16-2.5-.19-.81,.13-1.33,.99-1.45,.82-.11,1.35,.05,1.41,1.04,.06,.91,.8,1.48,1.45,1.93,1.44,1.01,4.21,1.27,5.97,.05,1.71-1.18,1.28-3.16-.25-3.88-1.45-.69-3.05-.86-4.57-1.31-1.45-.43-2.94-.77-3.84-2.2-1.52-2.42-.57-5.6,2.72-6.68,.86-.28,1.71-.2,2.57-.23Z"/><path class="cls-3" d="M424.63,220.06c0-2.44,.02-4.87-.01-7.31-.01-.73,.11-1.04,.95-1.02,3.47,.05,6.95,.06,10.42,0,.96-.02,.9,.46,.88,1.09-.02,.57,.19,1.16-.84,1.12-2.67-.08-5.35,0-8.03-.05-.78-.01-1.04,.19-.99,.98,.08,1.23-.4,2.84,.21,3.59,.64,.77,2.32,.2,3.54,.23,1.52,.04,3.04,.08,4.55-.02,.94-.06,1.08,.28,1.11,1.13,.04,.97-.33,1.09-1.16,1.07-2.44-.05-4.87,0-7.31-.03-.71-.01-.99,.14-.94,.91,.07,1.23,.06,2.48,0,3.71-.04,.74,.18,.94,.92,.93,2.83-.05,5.67,.03,8.51-.05,1.05-.03,.88,.54,.92,1.18,.05,.72-.08,1.04-.94,1.03-3.63-.05-7.27-.05-10.9,0-.79,.01-.91-.26-.9-.95,.04-2.51,.02-5.03,.02-7.54Z"/><path class="cls-3" d="M298.69,220.03c0-2.48,.02-4.95-.01-7.43,0-.67,.17-.88,.86-.87,3.51,.03,7.03,.06,10.54-.01,1.01-.02,.85,.52,.85,1.11,0,.61,.12,1.13-.87,1.1-2.63-.08-5.27,.02-7.91-.05-.94-.03-1.16,.28-1.08,1.14,.07,.83,.07,1.68,0,2.51-.08,.89,.15,1.24,1.14,1.2,2.35-.08,4.71,.03,7.07-.05,1.01-.04,.93,.48,.94,1.16,0,.68-.02,1.08-.92,1.05-2.43-.07-4.87,0-7.31-.04-.76-.02-.95,.21-.92,.94,.06,1.23,.07,2.48,0,3.71-.05,.78,.25,.91,.95,.9,2.76-.04,5.51,.03,8.27-.04,.96-.03,.91,.45,.88,1.08-.03,.57,.19,1.15-.84,1.13-3.59-.07-7.19-.06-10.78,0-.82,.01-.88-.33-.87-.98,.03-2.51,.01-5.03,.01-7.54Z"/><path class="cls-3" d="M339.42,211.75c.9-.35,1.24,.3,1.58,1.14,1.92,4.77,3.9,9.52,5.8,14.3,.14,.36,.75,.91,.09,1.32-.62,.38-2.43-.08-2.63-.58-.48-1.23-1.03-2.43-1.4-3.69-.18-.61-.43-.75-.98-.75-1.76,.01-3.52,.04-5.27-.02-.55-.02-.82,.21-.97,.64-.36,1.02-.61,2.09-1.05,3.07-.23,.51-.06,1.35-1.12,1.37-2.18,.04-2.16,.1-1.38-1.89,1.82-4.65,3.69-9.27,5.38-13.97,.4-1.13,1.04-.92,1.93-.96Z"/><path class="cls-3" d="M493.9,228.45c-.1,.04-.13,.07-.16,.07q-2.72,.12-3.61-2.4t-3.67-2.61c-1.08,0-2.16,.05-3.23-.02-.61-.04-.85,.24-1.01,.73-.32,.99-.71,1.97-.97,2.98-.28,1.07-.85,1.57-1.99,1.36-.34-.06-.71,0-1.21,0,1.05-2.79,2.05-5.46,3.06-8.13,.99-2.6,2.02-5.19,3-7.79,.19-.51,.33-1.05,.98-.85,.75,.23,1.74-.69,2.28,.68,2.12,5.35,4.34,10.67,6.53,16Z"/><path class="cls-3" d="M377.77,228.78c-4.34,.44-7.22-3.13-7.65-7.15-.28-2.65,.04-5.04,1.51-7.23,1.24-1.83,3.08-2.75,5.25-2.87,1.56-.09,3.15-.2,4.59,.69,1.34,.83,2.3,1.9,2.91,3.39,.35,.85-.05,1-.6,1.07-.67,.09-1.5,.88-1.93-.49-.59-1.88-2.18-2.75-3.97-2.7-2,.06-3.79,.86-4.63,2.96-.99,2.47-.99,4.94,.02,7.4,.73,1.78,2.16,2.59,4.01,2.77,2.09,.2,3.65-.57,4.59-2.49,.09-.17,.18-.35,.26-.52,.56-1.15,1.23-1.3,2.37-.61,.5,.31,.3,.63,.19,.99-.75,2.52-3.12,5.11-6.92,4.79Z"/><path class="cls-3" d="M463.87,228.78c-4.49,.38-7.09-3.09-7.61-7.06-.35-2.68-.02-5.14,1.5-7.35,1.25-1.81,3.09-2.74,5.28-2.84,1.72-.08,3.47-.2,4.97,.94,1.15,.86,2.12,1.82,2.53,3.28,.16,.58,.14,.68-.44,.86-1.61,.51-1.64,.58-2.3-.86-1.2-2.63-5.12-2.83-7.23-.98-1.07,.94-1.58,2.15-1.75,3.47-.32,2.56-.41,5.14,1.65,7.16,2,1.96,6.55,1.82,7.69-1.58,.18-.52,.09-1.68,1.47-1.11,1.43,.59,1.6,.57,.95,1.97-1.09,2.34-2.94,4.34-6.72,4.11Z"/><path class="cls-3" d="M291.25,221.27c0,2.12-.03,4.24,.02,6.35,.02,.73-.16,1.05-.92,.92-.27-.04-.56-.04-.84,0-.76,.12-.92-.2-.92-.92,.03-4.19-.02-8.39,.04-12.58,.01-.98-.3-1.2-1.2-1.14-1.11,.07-2.24-.04-3.35,.03-.97,.07-.76-.57-.74-1.08,.01-.49-.28-1.12,.71-1.11,3.92,.04,7.83,.04,11.75,0,.99-.01,.7,.62,.71,1.11,.02,.51,.23,1.14-.74,1.08-1.15-.07-2.32,.03-3.47-.04-.81-.05-1.1,.15-1.07,1.03,.07,2.11,.02,4.23,.02,6.35Z"/><path class="cls-3" d="M495.64,220.02c0-2.43,.03-4.87-.02-7.3-.02-.77,.18-1.01,.98-.99,1.68,.04,1.68,0,1.68,1.71,0,4.71-.05,9.41,.03,14.12,.02,1.23-.69,.97-1.35,.97-.67,0-1.4,.27-1.35-.97,.1-2.51,.03-5.02,.03-7.54Z"/><path class="cls-3" d="M265.34,220.27c0,2.47-.06,4.95,.03,7.42,.04,1.12-.65,.84-1.23,.84-.59,0-1.23,.25-1.22-.85,.06-5.02,.06-10.05,0-15.08-.01-1.12,.65-.84,1.23-.84,.59,0,1.26-.26,1.22,.85-.08,2.55-.03,5.1-.03,7.66Z"/><path class="cls-3" d="M476.21,220.05c0,2.51-.05,5.03,.03,7.54,.03,.98-.42,1.03-1.13,.95-.59-.07-1.33,.34-1.32-.88,.07-5.02,.06-10.05,0-15.08-.01-1.26,.82-.74,1.37-.82,.63-.09,1.11-.07,1.08,.87-.08,2.47-.03,4.94-.03,7.42Z"/><path class="cls-2" d="M615.81,122.74c-1.11-.36-2.63-.1-2.8-1.86,.55,1.2,1.94,1.13,2.8,1.86Z"/><path class="cls-1" d="M163.15,158.29c0-11.91,.01-23.81-.02-35.72,0-.98,.21-1.25,1.22-1.24,10.31,.04,20.62,.04,30.94,0,1,0,1.25,.23,1.24,1.23-.07,3.47-.06,6.95,0,10.43,.02,.93-.26,1.1-1.13,1.09-6.16-.04-12.31,0-18.47-.04-.98,0-1.35,.13-1.33,1.26,.07,5.75,.05,11.51,.01,17.26,0,.9,.17,1.2,1.15,1.19,5.12-.06,10.23,0,15.35-.05,.84,0,1.07,.2,1.05,1.05-.05,3.56-.05,7.11,0,10.67,.01,.86-.24,1.04-1.06,1.04-5.08-.04-10.15,.02-15.23-.05-1.11-.02-1.27,.33-1.27,1.33,.04,8.79,0,17.58,.05,26.37,0,1.01-.35,1.14-1.21,1.13-3.36-.04-6.72-.06-10.07,0-.99,.02-1.25-.22-1.24-1.23,.04-11.91,.03-23.81,.03-35.72Z"/><path class="cls-1" d="M142.76,143.28c0-6.91,.03-13.82-.03-20.74,0-1.03,.29-1.23,1.25-1.21,3.48,.06,6.95,.05,10.43,0,.8-.01,1.08,.14,1.08,1.02-.03,13.42,.05,26.85-.06,40.27-.04,4.93-.56,9.86-2.15,14.57-1.7,5.03-4.44,9.37-8.88,12.51-3.93,2.78-8.29,4.29-13.01,5.05-4.32,.69-8.65,.3-12.97,.45-.46,.02-.62-.15-.62-.61,.01-3.76,.02-7.51,0-11.27,0-.61,.32-.6,.75-.6,1.84,0,3.68,.1,5.51-.02,2.65-.18,5.33-.27,7.9-1.05,5.42-1.65,8.53-5.41,9.83-10.8,.68-2.84,.97-5.72,.97-8.64,0-6.31,0-12.63,0-18.94Z"/><path class="cls-1" d="M271.05,53.73c-5.43,0-10.87-.05-16.3,.03-1.45,.02-2.33-.76-2.34-2.27-.03-6.35-.02-12.7,0-19.05,0-1.25,.73-1.99,1.99-1.96,6.14,.16,12.27-.32,18.41-.26,4.91,.05,9.83,0,14.75,.01,1.68,0,2.51,.84,2.51,2.55,0,6.11-.07,12.22,.04,18.33,.03,1.86-.98,2.63-2.62,2.62-5.47-.03-10.95,0-16.42,0Z"/><path class="cls-1" d="M211.13,274.17c0-5.51,.04-11.02-.02-16.54-.03-2.45,1.37-3.39,3.39-3.42,5.59-.08,11.19-.09,16.78,0,2.07,.03,3.35,1.03,3.35,3.46,0,11.02,0,22.05,0,33.07,0,2.01-1.2,3.24-3.18,3.24-5.79,0-11.59,0-17.38,0-1.75,0-2.94-1.19-2.94-2.93,0-5.63,0-11.26,0-16.9Z"/><path class="cls-1" d="M43.92,135.02c0-3.12,.04-6.23-.02-9.35-.02-1.07,.49-1.43,1.4-1.43,2.04-.02,4.08-.04,6.12,0,1.13,.03,1.38,.84,1.38,1.8,0,3.04,0,6.07,0,9.11,0,3,0,5.99,0,8.99,0,1.46-.46,1.9-1.89,1.9-1.84,0-3.68-.04-5.52,.01-1.07,.03-1.5-.36-1.48-1.46,.04-3.2,.02-6.39,.02-9.59Z"/><path class="cls-1" d="M249.15,63.09c1.3-2.6,2.52-5.03,3.71-7.47,.23-.46,.58-.45,.98-.45,11.67,0,23.33,0,35,0,.29,0,.53-.04,.78,.33,1.64,2.4,3.34,4.75,5.1,7.24-15.24,.5-30.32,.31-45.57,.35Z"/><path class="cls-1" d="M27.54,125.19c3.92,0,7.84,.03,11.75-.02,1.14-.01,1.54,.4,1.53,1.54-.04,4.75-.04,9.51,0,14.26,.01,1.12-.49,1.48-1.48,1.48-7.92,0-15.83,0-23.75,0-1.13,0-1.65-.53-1.66-1.68-.01-4.71-.01-9.43,0-14.14,0-1.03,.61-1.44,1.61-1.44,4,.01,8,0,11.99,0Z"/><path class="cls-1" d="M270.76,66.44c-8.37,0-14.57,0-20.77,0-.71,0-1.24-.02-1.22-.98,.01-.87,.45-.95,1.14-.95,3,.02,6,0,9,0,7.36,0,14.72,.12,22.07-.04,4.42-.1,8.84-.16,13.26-.21,.98-.01,1.11,.5,1.1,1.25,0,.43-.21,.67-.65,.68-.16,0-.32,0-.48,0-8.54,.21-17.08,.34-23.44,.24Z"/><path class="cls-1" d="M38.26,145.99H16.97c.46-.76,.89-1.38,.84-2.23-.03-.63,.61-.33,.94-.33,4.71-.02,9.42-.01,14.13-.01h.72c1.12,0,2.26-.15,3.35,.04,1.3,.23,.2,1.99,1.3,2.54Z"/><path class="cls-1" d="M445.71,218.94c-.87-.1-2.29,.47-2.9-.22-.52-.58-.17-1.97-.18-3-.01-2.06,0-2.07,2.03-2.06,1.38,.01,2.76-.07,4.14,.22,1.39,.29,2.27,1.26,2.22,2.67-.04,1.19-1.18,2.31-2.48,2.38-.88,.05-1.76,0-2.83,0Z"/><path class="cls-1" d="M400.15,220.22c.24,2.5-.65,4.63-2.97,5.82-3.36,1.71-6.89,.03-7.8-3.86-.51-2.19-.24-4.31,.93-6.29,1.06-1.8,2.84-2.44,4.67-2.37,2.2,.08,3.87,1.32,4.74,3.5,.41,1.03,.47,2.05,.44,3.2Z"/><path class="cls-1" d="M336.67,221.56c.67-2.41,1.86-4.62,2.44-7.27,.95,2.52,1.83,4.87,2.74,7.27h-5.18Z"/><path class="cls-1" d="M485.69,214.27c.96,2.56,1.83,4.9,2.73,7.29h-5.17c.65-2.41,1.85-4.61,2.44-7.29Z"/><path class="cls-3" d="M271.23,51.34c-4.83,0-9.67,0-14.5,0-1.57,0-1.66-.08-1.69-1.73-.03-1.72,0-3.43,0-5.15,0-3.63,.02-7.27-.02-10.9,0-.72,.14-.96,.91-.94,8.65,.21,17.3-.35,25.96-.23,1.52,.02,3.04,.02,4.55,0,.56-.01,.75,.14,.75,.73-.02,5.83-.03,11.66,0,17.49,0,.85-.46,.74-.98,.74-4.99,0-9.99,0-14.98,0Z"/><path class="cls-3" d="M233.2,272.79c0,4.47,0,8.94,0,13.42,0,1.79-.95,2.76-2.72,2.76-4.91,0-9.83,0-14.74,0-2.5,0-3.12-1.22-3.14-3.05-.08-8.74-.08-17.49,0-26.23,.02-1.88,.72-3.18,3.19-3.12,4.95,.11,9.91,.03,14.86,.03,1.57,0,2.54,.95,2.54,2.54,.01,4.55,0,9.1,0,13.66Z"/><path class="cls-3" d="M222.41,290.38c1.15,.02,1.43,.49,1.44,1.31,0,.84-.52,1.31-1.16,1.28-.7-.03-1.3-.47-1.27-1.4,.03-.88,.45-1.22,.99-1.19Z"/><path class="cls-3" d="M48.33,128.79c-.84,0-1.67-.02-2.51,0-.48,.02-.73-.07-.71-.64,.01-.51,.24-.57,.66-.57,1.67,.01,3.35,0,5.02,0,.45,0,.82,.1,.8,.63-.03,.53-.44,.57-.86,.57-.8-.01-1.59,0-2.39,0Z"/><path class="cls-3" d="M48.34,125.91c.84,0,1.67,0,2.51,0,.41,0,.72,.14,.73,.59,.01,.45-.28,.61-.7,.61-1.67,0-3.35,0-5.02,0-.49,0-.72-.21-.75-.71-.04-.6,.38-.48,.72-.49,.84,0,1.67,0,2.51,0Z"/><path class="cls-3" d="M51.36,143.5c.03,.54-.12,.88-.71,.88-.57,0-.93-.35-.94-.84,0-.49,.36-.83,.93-.84,.59,0,.75,.33,.71,.8Z"/><path class="cls-3" d="M46.8,143.52c.13,.59-.34,.77-.73,.82-.56,.08-.92-.33-.91-.84,0-.45,.38-.84,.87-.77,.38,.05,.89,.16,.78,.8Z"/><path class="cls-3" d="M48.96,143.55c.03,.52-.15,.83-.72,.83-.58,0-.7-.33-.73-.84-.04-.66,.42-.8,.87-.82,.52-.02,.6,.4,.58,.83Z"/><path class="cls-3" d="M290.5,60.28c-12.73-.34-25.14,.29-37.64,.16,.42-1.45,1.36-2.59,1.76-3.97,.15-.51,.75-.33,1.17-.33,5.28,0,10.56,.17,15.83-.06,4.9-.22,9.8-.08,14.7-.2,.86-.02,1.38,.29,1.82,1,.67,1.08,1.44,2.09,2.35,3.4Z"/><path class="cls-3" d="M276.74,62.36h-9.78c.07-1.09,.59-1.5,1.71-1.45,2.06,.09,4.13,.02,6.2,.03,1.15,0,1.37,.17,1.86,1.43Z"/><path class="cls-3" d="M27.48,126.15c3.56,0,7.12,.03,10.67-.02,1.08-.01,1.48,.39,1.47,1.47-.04,4.08-.05,8.15,0,12.23,.01,1.18-.53,1.65-1.58,1.66-7.04,.02-14.07,.02-21.11-.01-.95,0-1.59-.46-1.58-1.62,.04-4.12,.04-8.23,0-12.35,0-1.05,.44-1.39,1.44-1.38,3.56,.03,7.12,.01,10.67,.01Z"/></svg>